<?xml version="1.0" standalone="no"?>
<!DOCTYPE svg PUBLIC "-//W3C//DTD SVG 20010904//EN"
 "http://www.w3.org/TR/2001/REC-SVG-20010904/DTD/svg10.dtd">
<svg version="1.0" xmlns="http://www.w3.org/2000/svg"
 width="300.000000pt" height="300.000000pt" viewBox="0 0 300.000000 300.000000"
 preserveAspectRatio="xMidYMid meet">
<metadata>
Created by potrace 1.14, written by Peter Selinger 2001-2017
</metadata>
<g transform="translate(0.000000,300.000000) scale(0.100000,-0.100000)"
fill="#000000" stroke="none">
<path d="M1602 1858 l-542 -543 88 -88 88 -87 42 43 42 43 -45 44 -46 45 458
452 458 452 198 -197 c170 -170 203 -207 236 -272 62 -121 76 -232 45 -359
-66 -262 -300 -495 -558 -556 -125 -30 -265 -14 -370 43 -28 15 -95 69 -149
121 l-98 95 -39 -39 c-22 -22 -40 -44 -40 -51 0 -19 177 -181 241 -220 32 -19
91 -47 131 -61 63 -23 89 -27 193 -27 110 0 128 3 217 33 232 79 427 253 537
480 57 117 75 207 69 344 -10 218 -40 268 -363 595 l-250 253 -543 -543z"/>
<path d="M960 2271 c-158 -34 -319 -129 -446 -262 -75 -80 -113 -135 -164
-239 -56 -117 -74 -206 -68 -343 10 -217 46 -277 362 -594 132 -134 245 -243
251 -243 5 0 253 243 550 540 l540 540 -85 85 c-46 47 -87 85 -91 85 -3 0 -25
-18 -50 -40 l-44 -39 43 -43 c23 -24 42 -48 42 -54 0 -6 -204 -211 -454 -457
l-453 -446 -200 202 c-212 215 -247 263 -278 382 -37 145 -3 306 101 465 81
125 166 203 295 273 178 97 348 107 508 30 57 -27 97 -57 173 -131 l99 -96 45
45 45 46 -99 94 c-109 104 -212 169 -307 194 -96 25 -217 28 -315 6z"/>
</g>
</svg>
